<svg width="108" height="110" viewBox="0 0 108 110" fill="none" xmlns="http://www.w3.org/2000/svg">
<g filter="url(#filter0_d_73_976)">
<rect x="21.5" y="1" width="65" height="65" rx="8" fill="#2B6CB0"/>
<path d="M48.4141 39.9062V37.8906C48.4141 36.3594 48.7266 35.0703 49.3516 34.0234C49.9766 32.9609 51.0859 31.9297 52.6797 30.9297C53.9453 30.1328 54.8516 29.4141 55.3984 28.7734C55.9609 28.1328 56.2422 27.3984 56.2422 26.5703C56.2422 25.9141 55.9453 25.3984 55.3516 25.0234C54.7578 24.6328 53.9844 24.4375 53.0312 24.4375C50.6719 24.4375 47.9141 25.2734 44.7578 26.9453L41.5 20.5703C45.3906 18.3516 49.4531 17.2422 53.6875 17.2422C57.1719 17.2422 59.9062 18.0078 61.8906 19.5391C63.875 21.0703 64.8672 23.1562 64.8672 25.7969C64.8672 27.6875 64.4219 29.3281 63.5312 30.7188C62.6562 32.0938 61.25 33.3984 59.3125 34.6328C57.6719 35.6953 56.6406 36.4766 56.2188 36.9766C55.8125 37.4609 55.6094 38.0391 55.6094 38.7109V39.9062H48.4141ZM47.4062 48.1094C47.4062 46.6719 47.8203 45.5625 48.6484 44.7812C49.4922 44 50.7266 43.6094 52.3516 43.6094C53.9141 43.6094 55.1094 44.0078 55.9375 44.8047C56.7812 45.5859 57.2031 46.6875 57.2031 48.1094C57.2031 49.5312 56.7656 50.6328 55.8906 51.4141C55.0312 52.1953 53.8516 52.5859 52.3516 52.5859C50.8047 52.5859 49.5938 52.2031 48.7188 51.4375C47.8438 50.6562 47.4062 49.5469 47.4062 48.1094Z" fill="#F9FAFB"/>
</g>
<path d="M24.672 83.152L20.28 100H15.312L12.624 88.912L9.84 100H4.872L0.6 83.152H4.992L7.416 95.416L10.416 83.152H14.928L17.808 95.416L20.256 83.152H24.672ZM34.9622 86.464C36.4982 86.464 37.7302 86.976 38.6582 88C39.5862 89.008 40.0502 90.4 40.0502 92.176V100H35.9702V92.728C35.9702 91.832 35.7382 91.136 35.2742 90.64C34.8102 90.144 34.1862 89.896 33.4022 89.896C32.6182 89.896 31.9942 90.144 31.5302 90.64C31.0662 91.136 30.8342 91.832 30.8342 92.728V100H26.7302V82.24H30.8342V88.408C31.2502 87.816 31.8182 87.344 32.5382 86.992C33.2582 86.64 34.0662 86.464 34.9622 86.464ZM56.5821 86.608L48.1821 106.36H43.7661L46.8381 99.544L41.3901 86.608H45.9741L49.0701 94.984L52.1421 86.608H56.5821ZM62.4561 91.552C62.4561 89.888 62.8161 88.408 63.5361 87.112C64.2561 85.8 65.2561 84.784 66.5361 84.064C67.8321 83.328 69.2961 82.96 70.9281 82.96C72.9281 82.96 74.6401 83.488 76.0641 84.544C77.4881 85.6 78.4401 87.04 78.9201 88.864H74.4081C74.0721 88.16 73.5921 87.624 72.9681 87.256C72.3601 86.888 71.6641 86.704 70.8801 86.704C69.6161 86.704 68.5921 87.144 67.8081 88.024C67.0241 88.904 66.6321 90.08 66.6321 91.552C66.6321 93.024 67.0241 94.2 67.8081 95.08C68.5921 95.96 69.6161 96.4 70.8801 96.4C71.6641 96.4 72.3601 96.216 72.9681 95.848C73.5921 95.48 74.0721 94.944 74.4081 94.24H78.9201C78.4401 96.064 77.4881 97.504 76.0641 98.56C74.6401 99.6 72.9281 100.12 70.9281 100.12C69.2961 100.12 67.8321 99.76 66.5361 99.04C65.2561 98.304 64.2561 97.288 63.5361 95.992C62.8161 94.696 62.4561 93.216 62.4561 91.552ZM87.5293 100.168C86.2973 100.168 85.1933 99.968 84.2173 99.568C83.2413 99.168 82.4573 98.576 81.8653 97.792C81.2893 97.008 80.9853 96.064 80.9533 94.96H85.3213C85.3853 95.584 85.6013 96.064 85.9693 96.4C86.3373 96.72 86.8173 96.88 87.4093 96.88C88.0173 96.88 88.4973 96.744 88.8493 96.472C89.2013 96.184 89.3773 95.792 89.3773 95.296C89.3773 94.88 89.2333 94.536 88.9453 94.264C88.6733 93.992 88.3293 93.768 87.9133 93.592C87.5133 93.416 86.9373 93.216 86.1853 92.992C85.0973 92.656 84.2093 92.32 83.5213 91.984C82.8333 91.648 82.2413 91.152 81.7453 90.496C81.2493 89.84 81.0013 88.984 81.0013 87.928C81.0013 86.36 81.5693 85.136 82.7053 84.256C83.8413 83.36 85.3213 82.912 87.1453 82.912C89.0013 82.912 90.4973 83.36 91.6333 84.256C92.7693 85.136 93.3773 86.368 93.4573 87.952H89.0173C88.9853 87.408 88.7853 86.984 88.4173 86.68C88.0493 86.36 87.5773 86.2 87.0013 86.2C86.5053 86.2 86.1053 86.336 85.8013 86.608C85.4973 86.864 85.3453 87.24 85.3453 87.736C85.3453 88.28 85.6013 88.704 86.1133 89.008C86.6253 89.312 87.4253 89.64 88.5133 89.992C89.6013 90.36 90.4813 90.712 91.1533 91.048C91.8413 91.384 92.4333 91.872 92.9293 92.512C93.4253 93.152 93.6733 93.976 93.6733 94.984C93.6733 95.944 93.4253 96.816 92.9293 97.6C92.4493 98.384 91.7453 99.008 90.8173 99.472C89.8893 99.936 88.7933 100.168 87.5293 100.168ZM101.119 82.216C102.831 82.216 104.199 82.664 105.223 83.56C106.263 84.456 106.783 85.72 106.783 87.352C106.783 88.856 106.287 90.032 105.295 90.88C104.319 91.712 103.023 92.136 101.407 92.152L101.287 93.952H97.6869L97.5669 89.488H99.0069C100.239 89.488 101.175 89.336 101.815 89.032C102.471 88.728 102.799 88.176 102.799 87.376C102.799 86.816 102.647 86.376 102.343 86.056C102.039 85.736 101.615 85.576 101.071 85.576C100.495 85.576 100.047 85.744 99.7269 86.08C99.4069 86.4 99.2469 86.84 99.2469 87.4H95.3829C95.3509 86.424 95.5509 85.544 95.9829 84.76C96.4309 83.976 97.0869 83.36 97.9509 82.912C98.8309 82.448 99.8869 82.216 101.119 82.216ZM99.5349 100.192C98.8149 100.192 98.2229 99.984 97.7589 99.568C97.3109 99.136 97.0869 98.608 97.0869 97.984C97.0869 97.344 97.3109 96.808 97.7589 96.376C98.2229 95.944 98.8149 95.728 99.5349 95.728C100.239 95.728 100.815 95.944 101.263 96.376C101.727 96.808 101.959 97.344 101.959 97.984C101.959 98.608 101.727 99.136 101.263 99.568C100.815 99.984 100.239 100.192 99.5349 100.192Z" fill="#2B6CB0"/>
<defs>
<filter id="filter0_d_73_976" x="20.85" y="0.35" width="70.2" height="70.2" filterUnits="userSpaceOnUse" color-interpolation-filters="sRGB">
<feFlood flood-opacity="0" result="BackgroundImageFix"/>
<feColorMatrix in="SourceAlpha" type="matrix" values="0 0 0 0 0 0 0 0 0 0 0 0 0 0 0 0 0 0 127 0" result="hardAlpha"/>
<feOffset dx="1.95" dy="1.95"/>
<feGaussianBlur stdDeviation="1.3"/>
<feComposite in2="hardAlpha" operator="out"/>
<feColorMatrix type="matrix" values="0 0 0 0 0 0 0 0 0 0 0 0 0 0 0 0 0 0 0.15 0"/>
<feBlend mode="normal" in2="BackgroundImageFix" result="effect1_dropShadow_73_976"/>
<feBlend mode="normal" in="SourceGraphic" in2="effect1_dropShadow_73_976" result="shape"/>
</filter>
</defs>
</svg>
